<svg width="100" height="100" viewBox="0 0 52.128 52.128" xmlns="http://www.w3.org/2000/svg">
    <g transform="translate(8.968 -20.872)">
        <path d="M32.144,46.072 L31.928,46.072 C31.3039969,47.7040082 30.4640053,49.1319939 29.408,50.356 C28.3519947,51.5800061 27.1760065,52.6119958 25.88,53.452 C24.5839935,54.2920042 23.1800076,54.9279978 21.668,55.36 C20.1559924,55.7920022 18.6080079,56.008 17.024,56.008 C14.623988,56.008 12.4040102,55.5640044 10.364,54.676 C8.3239898,53.7879956 6.57200732,52.5640078 5.108,51.004 C3.64399268,49.4439922 2.50400408,47.5960107 1.688,45.46 C0.87199592,43.3239893 0.464,41.0080125 0.464,38.512 C0.464,36.0159875 0.87199592,33.6880108 1.688,31.528 C2.50400408,29.3679892 3.64399268,27.4960079 5.108,25.912 C6.57200732,24.3279921 8.3239898,23.0920044 10.364,22.204 C12.4040102,21.3159956 14.623988,20.872 17.024,20.872 C20.1920158,20.872 23.1079867,21.7119916 25.772,23.392 C28.4360133,25.0720084 30.4879928,27.5679834 31.928,30.88 L32.144,30.88 L32.144,21.88 L33.728,21.88 L33.728,53.128 C33.728,55.7680132 33.4520028,58.287988 32.9,60.688 C32.3479972,63.088012 31.4360064,65.1999909 30.164,67.024 C28.8919936,68.8480091 27.2120104,70.2999946 25.124,71.38 C23.0359896,72.4600054 20.4560154,73 17.384,73 C14.2639844,73 11.4800122,72.4600054 9.032,71.38 C6.58398776,70.2999946 4.49600864,68.7760098 2.768,66.808 L3.848,65.728 C5.67200912,67.7920103 7.74798836,69.2919953 10.076,70.228 C12.4040116,71.1640047 14.8399873,71.632 17.384,71.632 C20.2640144,71.632 22.6639904,71.1040053 24.584,70.048 C26.5040096,68.9919947 28.0159945,67.6000086 29.12,65.872 C30.2240055,64.1439914 31.0039977,62.1640112 31.46,59.932 C31.9160023,57.6999888 32.144,55.384012 32.144,52.984 L32.144,46.072 Z M2.048,38.512 C2.048,40.6720108 2.39599652,42.7359902 3.092,44.704 C3.78800348,46.6720098 4.78399352,48.3999926 6.08,49.888 C7.37600648,51.3760074 8.94799076,52.5519957 10.796,53.416 C12.6440092,54.2800043 14.7199885,54.712 17.024,54.712 C19.232011,54.712 21.2599908,54.2800043 23.108,53.416 C24.9560092,52.5519957 26.5519933,51.3760074 27.896,49.888 C29.2400067,48.3999926 30.2959962,46.6720098 31.064,44.704 C31.8320038,42.7359902 32.216,40.648011 32.216,38.44 C32.216,36.231989 31.8320038,34.1440098 31.064,32.176 C30.2959962,30.2079902 29.2400067,28.4920073 27.896,27.028 C26.5519933,25.5639927 24.9560092,24.4000043 23.108,23.536 C21.2599908,22.6719957 19.232011,22.24 17.024,22.24 C14.7199885,22.24 12.6440092,22.6839956 10.796,23.572 C8.94799076,24.4600044 7.37600648,25.6479926 6.08,27.136 C4.78399352,28.6240074 3.78800348,30.3519902 3.092,32.32 C2.39599652,34.2880098 2.048,36.3519892 2.048,38.512 L2.048,38.512 Z" 
                    fill="currentColor"/>
    </g>
</svg>
